<svg width="60" height="61" viewBox="0 0 60 61" fill="none" xmlns="http://www.w3.org/2000/svg">
<g clip-path="url(#clip0_31_517)">
<path d="M0 29.7678C0 16.1913 0 9.4031 4.21766 5.18544C8.43532 0.967773 15.2235 0.967773 28.8 0.967773H31.2C44.7765 0.967773 51.5646 0.967773 55.7824 5.18544C60 9.4031 60 16.1913 60 29.7678V32.1678C60 45.7443 60 52.5324 55.7824 56.7501C51.5646 60.9678 44.7765 60.9678 31.2 60.9678H28.8C15.2235 60.9678 8.43532 60.9678 4.21766 56.7501C0 52.5324 0 45.7443 0 32.1678V29.7678Z" fill="#0077FF"/>
<path d="M31.925 44.193C18.25 44.193 10.4501 34.818 10.1251 19.218H16.9751C17.2001 30.668 22.25 35.518 26.25 36.518V19.218H32.7002V29.093C36.6502 28.668 40.7997 24.168 42.1997 19.218H48.6499C47.5749 25.318 43.0749 29.818 39.8749 31.668C43.0749 33.168 48.2001 37.093 50.1501 44.193H43.0499C41.5249 39.443 37.7252 35.768 32.7002 35.268V44.193H31.925Z" fill="white"/>
</g>
<defs>
<clipPath id="clip0_31_517">
<rect width="60" height="60" fill="white" transform="translate(0 0.967773)"/>
</clipPath>
</defs>
</svg>
