<svg width="60" height="61" viewBox="0 0 60 61" fill="none" xmlns="http://www.w3.org/2000/svg">
<g clip-path="url(#clip0_31_543)">
<path d="M0 60.9678L5.16 45.4888C2.54172 41.085 1.03448 35.9457 1.03448 30.4505C1.03448 14.1678 14.2345 0.967773 30.5172 0.967773C46.8 0.967773 60 14.1678 60 30.4505C60 46.7333 46.8 59.9333 30.5172 59.9333C25.5631 59.9333 20.8976 58.7054 16.8 56.5474L0 60.9678Z" fill="#2CB742"/>
<path d="M49.3272 40.2627C47.9658 37.6899 42.9455 34.7479 42.9455 34.7479C41.8096 34.1003 40.439 34.0279 39.7914 35.1824C39.7914 35.1824 38.16 37.1386 37.7452 37.4199C35.85 38.7037 34.0945 38.6541 32.3224 36.882L28.2041 32.7637L24.0859 28.6455C22.3138 26.8734 22.2641 25.1179 23.5479 23.2227C23.8293 22.8079 25.7855 21.1765 25.7855 21.1765C26.94 20.5279 26.8676 19.1582 26.22 18.0224C26.22 18.0224 23.2779 13.002 20.7052 11.6406C19.6107 11.0613 18.2669 11.2641 17.3917 12.1392L15.5731 13.9579C9.80379 19.7272 12.6445 26.2403 18.4138 32.0096L23.6865 37.2824L28.9593 42.5551C34.7286 48.3244 41.2417 51.1651 47.011 45.3958L48.8296 43.5772C49.7048 42.6999 49.9065 41.3561 49.3272 40.2627Z" fill="white"/>
</g>
<defs>
<clipPath id="clip0_31_543">
<rect width="60" height="60" fill="white" transform="translate(0 0.967773)"/>
</clipPath>
</defs>
</svg>
