<svg width="101" height="100" viewBox="0 0 101 100" fill="none" xmlns="http://www.w3.org/2000/svg">
<g clip-path="url(#clip0_48_16)">
<path d="M99.4908 41.3479C99.2199 41.1354 96.6887 39.25 91.3491 39.25C89.9387 39.2563 88.5324 39.375 87.1429 39.6063C86.1095 32.6188 80.4366 29.3354 80.1741 29.1834L78.7408 28.3667L77.797 29.7084C76.6158 31.5125 75.572 33.375 75.0658 35.4646C74.1095 39.4542 74.6908 43.2 76.7449 46.4021C74.2616 47.7667 70.0304 47.8875 69.2262 47.9167H3.77202C2.05119 47.9188 0.655357 49.2917 0.64494 50.9875C0.567857 56.6813 1.38036 62.5563 3.36577 67.9021C5.63452 73.7729 9.01161 78.0979 13.4033 80.7438C18.3241 83.7167 26.3199 85.4167 35.3845 85.4167C39.4783 85.4292 43.5658 85.0646 47.5908 84.325C53.1866 83.3104 58.572 81.3813 63.522 78.6167C67.6012 76.2854 71.272 73.3209 74.3949 69.8354C79.6137 64.0063 82.722 57.5167 85.0345 51.7479C85.3449 51.7479 85.6554 51.7479 85.9554 51.7479C91.6699 51.7479 95.1824 49.4917 97.1199 47.6021C98.4074 46.3959 99.4137 44.9271 100.066 43.3L100.476 42.1167L99.4908 41.3479Z" fill="#2395EC"/>
<path d="M17.1428 45.8333H10.8928C9.74284 45.8333 8.80951 44.9 8.80951 43.75V37.5C8.80951 36.35 9.74284 35.4166 10.8928 35.4166H17.1428C18.2928 35.4166 19.2262 36.35 19.2262 37.5V43.75C19.2262 44.9 18.2928 45.8333 17.1428 45.8333Z" fill="#2395EC"/>
<path d="M29.6428 45.8333H23.3928C22.2428 45.8333 21.3095 44.9 21.3095 43.75V37.5C21.3095 36.35 22.2428 35.4166 23.3928 35.4166H29.6428C30.7928 35.4166 31.7262 36.35 31.7262 37.5V43.75C31.7262 44.9 30.7928 45.8333 29.6428 45.8333Z" fill="#2395EC"/>
<path d="M42.1428 45.8333H35.8928C34.7428 45.8333 33.8095 44.9 33.8095 43.75V37.5C33.8095 36.35 34.7428 35.4166 35.8928 35.4166H42.1428C43.2928 35.4166 44.2262 36.35 44.2262 37.5V43.75C44.2262 44.9 43.2928 45.8333 42.1428 45.8333Z" fill="#2395EC"/>
<path d="M54.6428 45.8333H48.3928C47.2428 45.8333 46.3095 44.9 46.3095 43.75V37.5C46.3095 36.35 47.2428 35.4166 48.3928 35.4166H54.6428C55.7928 35.4166 56.7262 36.35 56.7262 37.5V43.75C56.7262 44.9 55.7928 45.8333 54.6428 45.8333Z" fill="#2395EC"/>
<path d="M29.6428 33.3333H23.3928C22.2428 33.3333 21.3095 32.4 21.3095 31.25V25C21.3095 23.85 22.2428 22.9166 23.3928 22.9166H29.6428C30.7928 22.9166 31.7262 23.85 31.7262 25V31.25C31.7262 32.4 30.7928 33.3333 29.6428 33.3333Z" fill="#2395EC"/>
<path d="M42.1428 33.3333H35.8928C34.7428 33.3333 33.8095 32.4 33.8095 31.25V25C33.8095 23.85 34.7428 22.9166 35.8928 22.9166H42.1428C43.2928 22.9166 44.2262 23.85 44.2262 25V31.25C44.2262 32.4 43.2928 33.3333 42.1428 33.3333Z" fill="#2395EC"/>
<path d="M54.6428 33.3333H48.3928C47.2428 33.3333 46.3095 32.4 46.3095 31.25V25C46.3095 23.85 47.2428 22.9166 48.3928 22.9166H54.6428C55.7928 22.9166 56.7262 23.85 56.7262 25V31.25C56.7262 32.4 55.7928 33.3333 54.6428 33.3333Z" fill="#2395EC"/>
<path d="M54.6428 20.8333H48.3928C47.2428 20.8333 46.3095 19.9 46.3095 18.75V12.5C46.3095 11.35 47.2428 10.4166 48.3928 10.4166H54.6428C55.7928 10.4166 56.7262 11.35 56.7262 12.5V18.75C56.7262 19.9 55.7928 20.8333 54.6428 20.8333Z" fill="#2395EC"/>
<path d="M67.1428 45.8333H60.8928C59.7428 45.8333 58.8095 44.9 58.8095 43.75V37.5C58.8095 36.35 59.7428 35.4166 60.8928 35.4166H67.1428C68.2928 35.4166 69.2262 36.35 69.2262 37.5V43.75C69.2262 44.9 68.2928 45.8333 67.1428 45.8333Z" fill="#2395EC"/>
</g>
<defs>
<clipPath id="clip0_48_16">
<rect width="100" height="100" fill="white" transform="translate(0.476196)"/>
</clipPath>
</defs>
</svg>
