<svg width="101" height="100" viewBox="0 0 101 100" fill="none" xmlns="http://www.w3.org/2000/svg">
<g clip-path="url(#clip0_48_14)">
<path fill-rule="evenodd" clip-rule="evenodd" d="M92.588 77.8947C87.1492 77.7432 82.9298 78.3007 79.3934 79.7883C78.3751 80.1973 76.741 80.1973 76.6069 81.4789C77.1511 82.0167 77.2166 82.8968 77.6937 83.6421C78.5092 84.9949 79.9391 86.8173 81.2302 87.7626L85.5822 90.8727C88.2345 92.4936 91.2268 93.4404 93.8105 95.0628C95.3074 96.0096 96.8028 97.2261 98.2997 98.2411C99.0618 98.7819 99.5237 99.662 100.476 99.9983V99.7938C100.001 99.1879 99.8636 98.3092 99.3895 97.6306L97.3469 95.6718C95.376 93.0359 92.9264 90.7363 90.274 88.8457C88.0973 87.3581 83.3383 85.3312 82.4542 82.8317L82.3201 82.6802C83.8139 82.5287 85.5822 82.003 87.012 81.597C89.3259 80.9911 91.4326 81.1244 93.8105 80.5169L97.0771 79.5701V78.9642C95.8531 77.7477 94.969 76.1253 93.6779 74.977C90.21 72.0033 86.3992 69.0962 82.4542 66.6633C80.3461 65.312 77.6251 64.4319 75.3813 63.2851C74.5628 62.8791 73.2046 62.6761 72.729 62.0005C71.5019 60.5159 70.8236 58.5542 69.9395 56.7954L64.3635 45.0353C63.1394 42.3994 62.3895 39.7635 60.8956 37.3306C53.8898 25.8403 46.2712 18.8794 34.5734 12.0518C32.0583 10.6324 29.066 10.0219 25.8847 9.27956L20.7843 9.00688C19.6944 8.53424 18.6076 7.24961 17.6549 6.64063C13.7785 4.20773 3.78041 -1.06406 0.922287 5.88319C-0.914533 10.2764 3.64321 14.6013 5.19041 16.8328C6.3489 18.387 7.84275 20.1443 8.66131 21.9016C9.11861 23.0498 9.27105 24.2678 9.74817 25.4843C10.835 28.458 11.8563 31.771 13.2846 34.5433C14.0468 35.9627 14.8471 37.4518 15.7998 38.7349C16.344 39.4924 17.2966 39.8166 17.4994 41.033C16.5467 42.3858 16.4811 44.4112 15.937 46.1033C13.4874 53.7414 14.4401 63.2033 17.9079 68.8266C18.9978 70.5157 21.5663 74.2347 25.0509 72.8137C28.1118 71.5973 27.4289 67.7449 28.313 64.3652C28.5188 63.5548 28.3816 63.014 28.7886 62.4716V62.6231L31.5781 68.2327C33.6863 71.5443 37.3599 74.9921 40.4193 77.2917C42.0503 78.5082 43.3429 80.6048 45.3825 81.3471V81.1426H45.2483C44.8398 80.5366 44.227 80.2639 43.6828 79.7913C42.4588 78.5748 41.0991 77.0872 40.1464 75.7359C37.2913 71.9518 34.7762 67.7601 32.5308 63.4351C31.4409 61.34 30.4882 59.0419 29.6072 56.9469C29.1956 56.1349 29.1956 54.9169 28.5173 54.514C27.496 55.9985 26.0021 57.2862 25.2506 59.1101C23.958 62.0157 23.8238 65.5984 23.3483 69.3159C23.0739 69.384 23.1958 69.3159 23.0739 69.4674C20.9002 68.9281 20.1502 66.6951 19.3347 64.8046C17.2951 60.0054 16.9537 52.3007 18.7219 46.7578C19.1975 45.3383 21.2401 40.877 20.4246 39.5257C20.013 38.2411 18.6564 37.4988 17.9064 36.4838C17.0223 35.1992 16.0726 33.5783 15.4598 32.1588C13.8288 28.3716 13.0133 24.183 11.2435 20.3973C10.425 18.64 8.9982 16.8146 7.84123 15.1937C6.5486 13.3682 5.12334 12.0836 4.10204 9.92187C3.76212 9.16443 3.28652 7.96161 3.83071 7.14964C3.96485 6.60882 4.23923 6.39219 4.78037 6.271C5.66448 5.51356 8.18267 6.474 9.06678 6.87696C11.5819 7.89193 13.6901 8.83721 15.7982 10.2551C16.7509 10.9308 17.7723 12.2154 18.9963 12.5547H20.4261C22.6028 13.0274 25.0494 12.7062 27.0874 13.3122C30.6925 14.4635 33.9561 16.1511 36.8828 17.978C45.791 23.5876 53.1383 31.5635 58.1015 41.0951C58.917 42.6494 59.2569 44.0688 60.0069 45.6913C61.4367 49.0043 63.205 52.3825 64.6302 55.6289C66.06 58.8056 67.4197 62.052 69.4593 64.6879C70.4806 66.1074 74.5597 66.8496 76.395 67.5935C77.7562 68.1994 79.8629 68.7448 81.09 69.4871C83.4008 70.9065 85.7132 72.5289 87.8885 74.0832C88.9753 74.8922 92.3776 76.5828 92.5804 77.931L92.588 77.8947ZM23.2309 19.1596C22.2912 19.1514 21.3545 19.2649 20.4444 19.4974V19.6489H20.5785C21.1227 20.7306 22.0754 21.4744 22.7553 22.4212L24.3208 25.666L24.4549 25.5146C25.4076 24.8389 25.8847 23.7573 25.8847 22.1364C25.4762 21.6637 25.4091 21.1896 25.0692 20.7169C24.6607 20.0413 23.7766 19.702 23.2309 19.1627V19.1596Z" fill="#00678C"/>
</g>
<defs>
<clipPath id="clip0_48_14">
<rect width="100" height="100" fill="white" transform="translate(0.476196)"/>
</clipPath>
</defs>
</svg>
