<svg width="101" height="100" viewBox="0 0 101 100" fill="none" xmlns="http://www.w3.org/2000/svg">
<g clip-path="url(#clip0_20_261)">
<path d="M0.476196 0H100.476V100H0.476196V0Z" fill="#F0DB4F"/>
<path d="M92.2918 76.1502C91.5598 71.5875 88.5845 67.7567 79.7728 64.1825C76.7119 62.7757 73.2994 61.7682 72.2823 59.4487C71.921 58.0989 71.8735 57.3384 72.1017 56.5209C72.7575 53.8688 75.9229 53.0418 78.4324 53.8023C80.0484 54.3441 81.5788 55.5895 82.5009 57.5761C86.8165 54.7815 86.807 54.8004 89.8203 52.8803C88.7176 51.1693 88.1283 50.3802 87.4058 49.6484C84.8108 46.7492 81.2747 45.2568 75.6188 45.3708C74.6397 45.4944 73.6512 45.6274 72.672 45.7511C69.8489 46.464 67.1587 47.9469 65.5807 49.9336C60.8469 55.3043 62.1967 64.7053 67.9572 68.5743C73.6321 72.8328 81.9686 73.8024 83.0332 77.7853C84.0693 82.6617 79.4497 84.2396 74.8583 83.6788C71.4743 82.9754 69.5922 81.2549 67.5579 78.1275C63.8128 80.2948 63.8128 80.2948 59.963 82.5096C60.8755 84.5058 61.8355 85.4089 63.366 87.1389C70.6094 94.4868 88.7366 94.1256 91.9877 83.0039C92.1207 82.6236 92.9953 80.0761 92.2918 76.1502V76.1502ZM54.8393 45.9601H45.4857C45.4857 54.0399 45.4478 62.0628 45.4478 70.1426C45.4478 75.2852 45.7139 80 44.8774 81.4449C43.5086 84.287 39.963 83.9354 38.347 83.3839C36.7025 82.576 35.866 81.4258 34.8964 79.8004C34.6303 79.3346 34.4307 78.9734 34.364 78.9449C31.8261 80.4943 29.2975 82.0531 26.7595 83.6027C28.0238 86.1977 29.8868 88.4506 32.2728 89.9144C35.8374 92.0531 40.6283 92.709 45.6379 91.5588C48.8983 90.6083 51.7119 88.6407 53.1853 85.6464C55.3146 81.7205 54.8583 76.9677 54.8393 71.711C54.8868 63.1369 54.8393 54.5628 54.8393 45.9601Z" fill="#323330"/>
</g>
<defs>
<clipPath id="clip0_20_261">
<rect width="100" height="100" fill="white" transform="translate(0.476196)"/>
</clipPath>
</defs>
</svg>
