<svg width="102" height="106" viewBox="0 0 102 106" fill="none" xmlns="http://www.w3.org/2000/svg">
<g clip-path="url(#clip0_15_215)">
<path fill-rule="evenodd" clip-rule="evenodd" d="M100.42 23.3502C100.457 23.4878 100.476 23.6296 100.476 23.7722V45.9272C100.476 46.2116 100.401 46.4909 100.259 46.7369C100.117 46.983 99.9126 47.1871 99.6666 47.3285L81.1203 58.0345V79.2546C81.1203 79.8321 80.8141 80.3652 80.3147 80.656L41.6008 103.001C41.5122 103.051 41.4155 103.084 41.3188 103.118C41.2826 103.13 41.2483 103.152 41.2101 103.162C40.9395 103.234 40.655 103.234 40.3844 103.162C40.3401 103.15 40.2998 103.126 40.2575 103.11C40.1689 103.078 40.0762 103.049 39.9916 103.001L1.2858 80.656C1.03991 80.5144 0.835605 80.3102 0.693469 80.0642C0.551333 79.8182 0.476391 79.539 0.476196 79.2546L0.476196 12.7896C0.476196 12.6442 0.496336 12.5028 0.532587 12.3655C0.54467 12.3191 0.572865 12.2767 0.588977 12.2302C0.619186 12.1454 0.647381 12.0586 0.691687 11.9798C0.721897 11.9273 0.766203 11.8849 0.802454 11.8365C0.848775 11.7719 0.891067 11.7052 0.945443 11.6487C0.991764 11.6023 1.05218 11.5679 1.10454 11.5275C1.16295 11.4791 1.21531 11.4266 1.28177 11.3882H1.28378L20.6377 0.215798C20.8828 0.0744123 21.1606 0 21.4433 0C21.726 0 22.0038 0.0744123 22.2489 0.215798L41.6028 11.3882H41.6068C41.6713 11.4286 41.7256 11.4791 41.784 11.5255C41.8364 11.5659 41.8948 11.6023 41.9411 11.6467C41.9975 11.7052 42.0378 11.7719 42.0861 11.8365C42.1204 11.8849 42.1667 11.9273 42.1949 11.9798C42.2412 12.0606 42.2674 12.1454 42.2996 12.2302C42.3157 12.2767 42.3439 12.3191 42.356 12.3675C42.3931 12.5051 42.412 12.647 42.4124 12.7896V54.303L58.54 44.9923V23.7702C58.54 23.6288 58.5601 23.4854 58.5964 23.3502C58.6105 23.3017 58.6367 23.2593 58.6528 23.2128C58.685 23.128 58.7132 23.0412 58.7575 22.9625C58.7877 22.91 58.832 22.8676 58.8663 22.8191C58.9146 22.7545 58.9549 22.6878 59.0113 22.6313C59.0576 22.5849 59.116 22.5505 59.1683 22.5101C59.2288 22.4617 59.2811 22.4092 59.3456 22.3708H59.3476L78.7035 11.1984C78.9485 11.0568 79.2263 10.9823 79.5091 10.9823C79.7919 10.9823 80.0697 11.0568 80.3147 11.1984L99.6686 22.3708C99.7371 22.4112 99.7894 22.4617 99.8499 22.5081C99.9002 22.5485 99.9586 22.5849 100.005 22.6293C100.061 22.6878 100.102 22.7545 100.15 22.8191C100.186 22.8676 100.231 22.91 100.259 22.9625C100.305 23.0412 100.331 23.128 100.363 23.2128C100.382 23.2593 100.408 23.3017 100.42 23.3502V23.3502ZM97.2499 44.9923V26.5688L90.477 30.478L81.1203 35.8795V54.303L97.2519 44.9923H97.2499ZM77.8959 78.3197V59.8841L68.6923 65.1543L42.4104 80.1936V98.8028L77.8959 78.3197ZM3.70252 15.5862V78.3197L39.1841 98.8008V80.1956L20.6478 69.6774L20.6417 69.6734L20.6337 69.6693C20.5713 69.633 20.5189 69.5805 20.4605 69.5361C20.4101 69.4957 20.3517 69.4634 20.3074 69.419L20.3034 69.4129C20.251 69.3624 20.2148 69.2998 20.1705 69.2433C20.1302 69.1888 20.0819 69.1423 20.0496 69.0858L20.0476 69.0797C20.0114 69.0191 19.9892 68.9464 19.963 68.8778C19.9369 68.8172 19.9026 68.7607 19.8865 68.6961V68.694C19.8664 68.6173 19.8623 68.5365 19.8543 68.4578C19.8462 68.3972 19.8301 68.3366 19.8301 68.2761V68.272V24.8969L10.4754 19.4934L3.70252 15.5882V15.5862ZM21.4453 3.48292L5.31971 12.7896L21.4413 22.0962L37.5649 12.7875L21.4413 3.48292H21.4453ZM29.8313 61.5641L39.1861 56.1647V15.5862L32.4132 19.4954L23.0565 24.8969V65.4754L29.8313 61.5641ZM79.5091 14.4655L63.3855 23.7722L79.5091 33.0788L95.6307 23.7702L79.5091 14.4655V14.4655ZM77.8959 35.8795L68.5392 30.478L61.7663 26.5688V44.9923L71.1211 50.3917L77.8959 54.303V35.8795ZM40.7952 77.3969L64.4449 63.86L76.2667 57.0956L60.1552 47.795L41.6048 58.503L24.6978 68.2619L40.7952 77.3969V77.3969Z" fill="#FF2D20"/>
</g>
<defs>
<clipPath id="clip0_15_215">
<rect width="100.958" height="105.272" fill="white" transform="translate(0.476196)"/>
</clipPath>
</defs>
</svg>
