<svg width="101" height="104" viewBox="0 0 101 104" fill="none" xmlns="http://www.w3.org/2000/svg">
<g clip-path="url(#clip0_19_250)">
<path d="M100.089 61.7523C99.4891 59.9363 97.9183 58.6714 95.8871 58.3679C94.9293 58.225 93.8324 58.2859 92.5344 58.5535C90.2719 59.0203 88.5934 59.198 87.3684 59.2324C91.9922 51.4257 95.7519 42.5234 97.9164 34.1433C101.416 20.5929 99.5461 14.4199 97.3605 11.6277C91.5766 4.23707 83.1379 0.26676 72.9574 0.145275C67.5266 0.078869 62.759 1.15113 60.2719 1.92223C57.9562 1.51363 55.4664 1.28551 52.8539 1.24332C47.9566 1.1652 43.6297 2.23278 39.9324 4.42692C37.8855 3.73473 34.6004 2.75895 30.8066 2.13629C21.884 0.671447 14.6926 1.81285 9.43242 5.52887C3.06289 10.0281 0.110156 17.8453 0.65625 28.7632C0.829687 32.2297 2.76875 42.7765 5.82187 52.7789C7.57656 58.5281 9.44766 63.3023 11.3832 66.9703C14.1281 72.1714 17.0652 75.2343 20.3625 76.3343C22.2105 76.95 25.5684 77.3812 29.1 74.4398C29.5477 74.982 30.1449 75.5207 30.9375 76.0211C31.9441 76.6558 33.175 77.1746 34.4043 77.482C38.8344 78.5894 42.984 78.3125 46.5242 76.7601C46.5461 77.3898 46.5629 77.9914 46.5769 78.5109C46.6004 79.3535 46.6238 80.1797 46.6547 80.9523C46.8645 86.1765 47.2199 90.2386 48.273 93.0808C48.3309 93.2371 48.4086 93.4754 48.4906 93.7281C49.016 95.3367 49.8945 98.0297 52.1297 100.139C54.4441 102.323 57.2437 102.993 59.8078 102.993C61.0937 102.993 62.3207 102.825 63.3969 102.594C67.2328 101.772 71.5894 100.519 74.741 96.032C77.7207 91.7898 79.1691 85.4004 79.4312 75.3328C79.4652 75.048 79.4965 74.7761 79.5266 74.5172L79.5891 73.9851L80.291 74.0468L80.4719 74.0589C84.3789 74.2371 89.1562 73.4086 92.0902 72.0457C94.4086 70.9699 101.838 67.0476 100.089 61.7523" fill="black"/>
<path d="M93.4082 62.7821C81.791 65.1786 80.9922 61.2454 80.9922 61.2454C93.2578 43.045 98.3855 19.9422 93.9609 14.2879C81.8891 -1.13589 60.9926 6.15864 60.6438 6.3477L60.5316 6.36802C58.2363 5.89145 55.668 5.60786 52.7809 5.56059C47.5246 5.47466 43.5371 6.93872 40.5113 9.23325C40.5113 9.23325 3.23399 -6.12378 4.96797 28.5473C5.33672 35.9231 15.5398 84.3571 27.7094 69.7278C32.1574 64.3782 36.4555 59.8551 36.4555 59.8551C38.5898 61.2731 41.1453 61.9965 43.8242 61.7368L44.0324 61.5602C43.9676 62.2243 43.9973 62.8739 44.1156 63.643C40.9805 67.1458 41.902 67.7606 35.6348 69.0508C29.293 70.3579 33.0184 72.6844 35.4508 73.293C38.3996 74.0301 45.2215 75.0747 49.8309 68.6219L49.6473 69.3583C50.8754 70.3422 51.7379 75.7579 51.5934 80.6676C51.4488 85.577 51.3523 88.9477 52.3199 91.5805C53.2883 94.2133 54.2527 100.137 62.4918 98.3719C69.3758 96.8965 72.9434 93.0735 73.4398 86.6961C73.7918 82.1625 74.5891 82.8329 74.6391 78.7793L75.2785 76.8606C76.0156 70.7149 75.3957 68.7321 79.6367 69.6543L80.668 69.745C83.7891 69.8868 87.875 69.2426 90.273 68.1282C95.4363 65.7321 98.4988 61.7309 93.4074 62.7821H93.4082" fill="#336791"/>
<path d="M42.6934 31.8456C41.6465 31.6999 40.6985 31.8347 40.2188 32.198C39.9492 32.4023 39.8656 32.639 39.843 32.8019C39.7828 33.2335 40.0852 33.7109 40.2711 33.957C40.7969 34.6538 41.5649 35.1328 42.325 35.2382C42.4352 35.2538 42.5449 35.2609 42.6539 35.2609C43.9215 35.2609 45.0742 34.2738 45.1758 33.5453C45.3028 32.6328 43.9781 32.0246 42.6934 31.846M77.3746 31.8746C77.2746 31.1593 76.002 30.9554 74.7942 31.1234C73.5879 31.2914 72.4184 31.8359 72.516 32.5527C72.5942 33.1101 73.6008 34.0617 74.7922 34.0617C74.893 34.0617 74.9946 34.055 75.0969 34.0406C75.8922 33.9304 76.4758 33.4253 76.7531 33.1343C77.175 32.6906 77.4196 32.196 77.3746 31.8746" fill="white"/>
<path d="M97.2738 62.5098C96.8309 61.1703 95.4051 60.7395 93.0363 61.2285C86.0031 62.6801 83.4844 61.6746 82.6574 61.0656C88.1242 52.7375 92.6215 42.6703 95.0477 33.2778C96.1969 28.8285 96.8316 24.6965 96.8836 21.3285C96.941 17.6321 96.3113 14.9156 95.0129 13.2563C89.7777 6.56682 82.0941 2.97854 72.7934 2.8801C66.3992 2.80823 60.9969 4.44456 59.9496 4.90471C57.7441 4.35627 55.3398 4.01956 52.7223 3.97659C47.9223 3.89885 43.773 5.04807 40.3379 7.39065C38.8457 6.83518 34.9895 5.51135 30.2734 4.75159C22.1203 3.43909 15.6414 4.43362 11.018 7.70901C5.50117 11.6176 2.9543 18.6043 3.44766 28.4746C3.61367 31.7953 5.50586 42.011 8.4918 51.7942C12.4223 64.6707 16.6949 71.9602 21.1902 73.4598C21.7164 73.6352 22.323 73.7578 22.9922 73.7578C24.632 73.7578 26.6426 73.0188 28.7344 70.5039C31.2858 67.4432 33.925 64.4568 36.6488 61.5485C38.416 62.4969 40.3574 63.0266 42.343 63.0797C42.3469 63.1317 42.352 63.1836 42.3566 63.2352C42.0149 63.6427 41.6802 64.0562 41.3527 64.4754C39.977 66.2219 39.6906 66.5856 35.2621 67.4973C34.0023 67.7574 30.6566 68.4469 30.6074 70.7922C30.5543 73.3547 34.5625 74.4309 35.0191 74.5449C36.6106 74.9434 38.1438 75.1399 39.6059 75.1399C43.1617 75.1399 46.291 73.9711 48.7918 71.7098C48.7148 80.8449 49.0957 89.8465 50.1926 92.5891C51.091 94.8344 53.2856 100.321 60.2176 100.321C61.2348 100.321 62.3543 100.203 63.5859 99.9387C70.8207 98.3879 73.9625 95.1902 75.1777 88.1406C75.8281 84.3731 76.9441 75.3766 77.4691 70.5508C78.577 70.8965 80.0031 71.0547 81.5449 71.0543C84.7606 71.0543 88.4711 70.3711 90.7981 69.291C93.4121 68.077 98.1293 65.0981 97.2738 62.5098V62.5098ZM80.0449 29.9004C80.0211 31.325 79.825 32.6184 79.6172 33.9684C79.3934 35.4203 79.1621 36.9215 79.1039 38.7438C79.0465 40.5172 79.268 42.361 79.482 44.1442C79.9149 47.7457 80.359 51.4535 78.6398 55.1121C78.3543 54.6061 78.0999 54.0831 77.8781 53.5461C77.6645 53.0281 77.2004 52.1961 76.5578 51.0445C74.0582 46.5617 68.2047 36.0641 71.2012 31.7805C72.0938 30.5055 74.359 29.1946 80.0449 29.9004V29.9004ZM73.1527 5.76487C81.4863 5.94885 88.0785 9.06643 92.7457 15.0305C96.3254 19.6051 92.3836 40.4203 80.9723 58.3778C80.8575 58.2318 80.7421 58.0864 80.6262 57.9414L80.4816 57.761C83.4305 52.891 82.8539 48.0727 82.3406 43.8008C82.1297 42.0477 81.9305 40.3918 81.9813 38.8363C82.0336 37.1879 82.2516 35.7738 82.4625 34.4067C82.7215 32.7219 82.9852 30.9785 82.9125 28.9235C82.9668 28.7078 82.9887 28.4531 82.9602 28.1508C82.7746 26.1801 80.5246 20.2821 75.9387 14.9438C73.4301 12.0239 69.7719 8.75627 64.777 6.55237C66.9254 6.10706 69.8633 5.69182 73.1527 5.76487V5.76487ZM26.5207 68.6633C24.216 71.4344 22.6246 70.9031 22.1012 70.7289C18.691 69.5914 14.734 62.3836 11.2453 50.9539C8.22656 41.0641 6.4625 31.1192 6.32266 28.3305C5.88203 19.511 8.01992 13.3645 12.6773 10.0614C20.257 4.68635 32.7188 7.90354 37.7262 9.53518C37.6543 9.60627 37.5793 9.67268 37.5082 9.74495C29.291 18.0434 29.4859 32.2215 29.5063 33.0883C29.5055 33.4227 29.5336 33.8961 29.5719 34.5473C29.7133 36.9321 29.9766 41.3703 29.2734 46.3965C28.6203 51.0672 30.0602 55.6387 33.2231 58.9391C33.5477 59.2771 33.8888 59.5989 34.2453 59.9031C32.8375 61.411 29.7777 64.7453 26.5207 68.6633V68.6633ZM35.3016 56.9473C32.7523 54.2871 31.5945 50.5871 32.1246 46.7949C32.8668 41.4856 32.593 36.8613 32.4457 34.377C32.425 34.0293 32.4066 33.7246 32.3961 33.4844C33.5965 32.4199 39.1594 29.4395 43.1266 30.3485C44.9367 30.7629 46.0398 31.9957 46.4984 34.116C48.8719 45.0938 46.8125 49.6692 45.1578 53.3461C44.8168 54.1035 44.4945 54.8195 44.2195 55.5602L44.0063 56.1328C43.4664 57.5805 42.9641 58.9266 42.6527 60.2047C39.9426 60.1969 37.3063 59.0391 35.3016 56.9469V56.9473ZM35.7176 71.752C34.9262 71.5543 34.2145 71.211 33.7969 70.9262C34.1457 70.7621 34.7664 70.5387 35.843 70.3168C41.0527 69.2445 41.8574 68.4875 43.6145 66.2567C44.0172 65.7449 44.4738 65.1652 45.1063 64.459L45.107 64.4582C46.0488 63.4035 46.4797 63.5824 47.2609 63.9067C47.8941 64.1684 48.5109 64.9621 48.7609 65.8356C48.8793 66.2481 49.0121 67.0309 48.5773 67.6402C44.907 72.7793 39.5586 72.7133 35.7176 71.752V71.752ZM62.9828 97.1238C56.6094 98.4895 54.3527 95.2375 52.8656 91.5199C51.9059 89.1199 51.434 78.2973 51.7688 66.3453C51.7731 66.1863 51.7504 66.0328 51.7066 65.8883C51.6675 65.6029 51.608 65.3207 51.5285 65.0438C51.0309 63.3047 49.818 61.85 48.3629 61.2469C47.7848 61.0074 46.7238 60.568 45.4488 60.8942C45.7207 59.7738 46.1922 58.5086 46.7035 57.1387L46.918 56.5625C47.1594 55.9129 47.4625 55.2399 47.7828 54.5274C49.5145 50.6805 51.8859 45.4113 49.3121 33.5078C48.348 29.0492 45.1285 26.8719 40.2481 27.3778C37.3223 27.6805 34.6453 28.861 33.3102 29.5379C33.023 29.6832 32.7605 29.8238 32.5152 29.9606C32.8879 25.4684 34.2957 17.0731 39.5621 11.7614C42.8781 8.4176 47.2941 6.76604 52.6746 6.8551C63.2762 7.02854 70.0746 12.4692 73.9113 17.0031C77.2176 20.9098 79.0078 24.8453 79.7223 26.968C74.3492 26.4215 70.6949 27.4821 68.8426 30.1305C64.8125 35.8914 71.0473 47.0727 74.0438 52.4465C74.5934 53.4313 75.0676 54.2824 75.2168 54.6442C76.1926 57.009 77.4559 58.5879 78.3781 59.7402C78.6609 60.0934 78.9352 60.436 79.1438 60.7352C77.5164 61.2043 74.5934 62.2883 74.8598 67.7067C74.6449 70.4254 73.1172 83.1543 72.341 87.6516C71.3164 93.593 69.1301 95.8059 62.9828 97.1242V97.1238ZM89.5859 66.6801C87.9219 67.4524 85.1371 68.0317 82.4918 68.1563C79.5699 68.293 78.0824 67.8289 77.7324 67.5434C77.5684 64.1668 78.825 63.8141 80.1551 63.4406C80.3641 63.382 80.568 63.3246 80.7649 63.2559C80.8871 63.3555 81.0211 63.4543 81.168 63.5512C83.5164 65.1012 87.7051 65.2684 93.6188 64.0477L93.6836 64.0348C92.8859 64.7805 91.5211 65.7813 89.5859 66.6801Z" fill="white"/>
</g>
<defs>
<clipPath id="clip0_19_250">
<rect width="100" height="103.135" fill="white" transform="translate(0.476196)"/>
</clipPath>
</defs>
</svg>
