<svg width="101" height="54" viewBox="0 0 101 54" fill="none" xmlns="http://www.w3.org/2000/svg">
<path d="M1.88232 26.9683C1.88232 41.0858 23.639 52.5305 50.4762 52.5305C77.3133 52.5305 99.0702 41.0858 99.0702 26.9683C99.0702 12.851 77.3133 1.4061 50.4762 1.4061C23.639 1.4061 1.88232 12.851 1.88232 26.9683Z" fill="url(#paint0_radial_15_217)"/>
<path d="M50.4762 50.6326C76.2651 50.6326 97.1718 40.0376 97.1718 26.9682C97.1718 13.8989 76.2651 3.30383 50.4762 3.30383C24.6872 3.30383 3.78052 13.8989 3.78052 26.9682C3.78052 40.0376 24.6872 50.6326 50.4762 50.6326Z" fill="#777BB3"/>
<path d="M28.2838 29.9023C30.4043 29.9023 31.9873 29.5112 32.989 28.7403C33.9799 27.9774 34.6643 26.6555 35.0231 24.8116C35.3575 23.0881 35.2301 21.8847 34.6445 21.2352C34.0457 20.5719 32.751 20.2355 30.7966 20.2355H27.4078L25.5291 29.9023H28.2838ZM17.1999 41.8099C17.0426 41.8099 16.8932 41.7396 16.7932 41.618C16.693 41.4966 16.6524 41.3366 16.6824 41.1821L21.6613 15.5651C21.7095 15.3174 21.9265 15.1385 22.1789 15.1385H32.9097C36.2822 15.1385 38.7924 16.0542 40.3702 17.8605C41.9564 19.6763 42.4462 22.2144 41.826 25.4042C41.5736 26.7038 41.1395 27.9107 40.5357 28.9913C39.9313 30.0731 39.1325 31.074 38.1611 31.9669C36.9982 33.0552 35.6821 33.8444 34.2529 34.3087C32.8463 34.7669 31.0398 34.9993 28.8838 34.9993H24.5387L23.2978 41.3832C23.2497 41.631 23.0328 41.8099 22.7804 41.8099H17.1999Z" fill="black"/>
<path d="M27.8425 20.7627H30.7967C33.1555 20.7627 33.9749 21.2803 34.2533 21.5888C34.7152 22.101 34.8024 23.1808 34.5055 24.7115C34.1719 26.4252 33.5536 27.6402 32.6674 28.3225C31.7602 29.021 30.2852 29.3749 28.2838 29.3749H26.1688L27.8425 20.7627ZM32.9098 14.6112H22.1789C21.6741 14.6112 21.2401 14.969 21.1438 15.4645L16.1649 41.0815C16.1048 41.3907 16.186 41.7104 16.3862 41.9535C16.5866 42.1966 16.885 42.3372 17.2 42.3372H22.7803C23.2853 42.3372 23.7192 41.9793 23.8155 41.4838L24.9734 35.5265H28.8839C31.0953 35.5265 32.9569 35.2854 34.4166 34.8099C35.9178 34.3222 37.2989 33.4952 38.5213 32.3521C39.5322 31.422 40.365 30.378 40.996 29.2487C41.6271 28.1191 42.0806 26.8595 42.3437 25.5047C42.9966 22.147 42.4662 19.4583 40.7673 17.5137C39.0849 15.5877 36.4412 14.6112 32.9098 14.6112ZM24.8894 30.4295H28.2838C30.5337 30.4295 32.2096 30.0057 33.3107 29.158C34.412 28.3102 35.1548 26.8951 35.5408 24.9122C35.91 23.0084 35.7418 21.6649 35.0361 20.8823C34.3296 20.0996 32.9167 19.7082 30.7967 19.7082H26.9732L24.8894 30.4295M32.9098 15.6657C36.138 15.6657 38.493 16.5129 39.9732 18.2074C41.4533 19.9019 41.899 22.2671 41.3085 25.3036C41.0654 26.5545 40.6543 27.6982 40.0755 28.7343C39.496 29.7711 38.7394 30.7191 37.8043 31.5788C36.69 32.6216 35.4522 33.3647 34.09 33.8072C32.7279 34.251 30.993 34.4719 28.8839 34.4719H24.1039L22.7803 41.2826H17.2L22.1789 15.6657H32.9098" fill="white"/>
<path d="M54.621 34.9993C54.4636 34.9993 54.3143 34.929 54.2143 34.8073C54.114 34.6859 54.0734 34.5261 54.1034 34.3715L56.3059 23.0369C56.5154 21.959 56.4637 21.1853 56.1605 20.8584C55.9749 20.6586 55.4174 20.3234 53.769 20.3234H49.7789L47.0098 34.5725C46.9616 34.8203 46.7446 34.9993 46.4922 34.9993H40.9558C40.7983 34.9993 40.6491 34.929 40.5489 34.8073C40.4487 34.6859 40.4081 34.5259 40.4382 34.3715L45.4171 8.75441C45.4652 8.50676 45.6823 8.32784 45.9347 8.32784H51.4711C51.6286 8.32784 51.7778 8.39814 51.878 8.51959C51.9781 8.64122 52.0187 8.80098 51.9887 8.95565L50.7872 15.1385H55.0796C58.3496 15.1385 60.567 15.715 61.8584 16.901C63.1749 18.1109 63.5856 20.0455 63.0794 22.6517L60.7629 34.5725C60.7148 34.8203 60.4979 34.9993 60.2453 34.9993H54.621Z" fill="black"/>
<path d="M51.471 7.8005H45.9346C45.4297 7.8005 44.9957 8.15835 44.8994 8.65381L39.9205 34.2709C39.8604 34.58 39.9416 34.8997 40.142 35.1428C40.3423 35.3859 40.6408 35.5265 40.9557 35.5265H46.4921C46.9969 35.5265 47.4311 35.1686 47.5274 34.6732L50.2135 20.8506H53.7689C55.4145 20.8506 55.7599 21.2021 55.7738 21.2172C55.8736 21.3246 56.0049 21.822 55.7882 22.9363L53.5858 34.2709C53.5257 34.58 53.6069 34.8997 53.8072 35.1428C54.0076 35.3859 54.306 35.5265 54.621 35.5265H60.2453C60.7501 35.5265 61.1842 35.1686 61.2805 34.6732L63.5968 22.7523C64.1405 19.9541 63.6754 17.855 62.2152 16.5129C60.8218 15.2332 58.4877 14.6112 55.0796 14.6112H51.4266L52.5063 9.0563C52.5662 8.74714 52.4852 8.42726 52.2848 8.18436C52.0844 7.94129 51.786 7.8005 51.471 7.8005ZM51.471 8.85506L50.1474 15.6657H55.0796C58.1829 15.6657 60.3235 16.2074 61.5016 17.2894C62.6797 18.3721 63.0326 20.1263 62.5618 22.5513L60.2453 34.4719H54.621L56.8234 23.1376C57.0741 21.8482 56.982 20.9687 56.5468 20.4998C56.1114 20.0309 55.1854 19.7961 53.7689 19.7961H49.344L46.4921 34.4719H40.9557L45.9346 8.85506H51.471Z" fill="white"/>
<path d="M71.8395 29.9023C73.96 29.9023 75.5431 29.5112 76.5448 28.7403C77.5357 27.9775 78.2201 26.6556 78.579 24.8116C78.9135 23.0881 78.786 21.8847 78.2002 21.2352C77.6014 20.5719 76.3068 20.2355 74.3523 20.2355H70.9635L69.0848 29.9023H71.8395ZM60.7558 41.8099C60.5985 41.8099 60.4491 41.7396 60.3491 41.618C60.2489 41.4966 60.2081 41.3366 60.2382 41.1821L65.2171 15.5651C65.2654 15.3174 65.4823 15.1385 65.7349 15.1385H76.4655C79.8381 15.1385 82.3481 16.0542 83.9261 17.8605C85.5123 19.6761 86.002 22.2142 85.3819 25.4042C85.1292 26.7038 84.6952 27.9107 84.0915 28.9913C83.4871 30.0731 82.6882 31.074 81.7168 31.9669C80.554 33.0552 79.2379 33.8444 77.8086 34.3087C76.402 34.7669 74.5956 34.9993 72.4396 34.9993H68.0943L66.8539 41.3832C66.8056 41.631 66.5887 41.8099 66.3361 41.8099H60.7558Z" fill="black"/>
<path d="M71.3982 20.7627H74.3524C76.7113 20.7627 77.5306 21.2803 77.809 21.5888C78.2711 22.101 78.3583 23.1808 78.0613 24.7113C77.7277 26.4252 77.1092 27.6402 76.2232 28.3225C75.3159 29.021 73.8409 29.3749 71.8396 29.3749H69.7247L71.3982 20.7627ZM76.4655 14.6112H65.7348C65.23 14.6112 64.796 14.969 64.6997 15.4645L59.7208 41.0815C59.6607 41.3907 59.7419 41.7104 59.9421 41.9535C60.1425 42.1966 60.4409 42.3372 60.7559 42.3372H66.3362C66.841 42.3372 67.2751 41.9793 67.3714 41.4838L68.5292 35.5265H72.4396C74.651 35.5265 76.5126 35.2854 77.9723 34.8099C79.4735 34.3222 80.855 33.4951 82.0774 32.3518C83.0883 31.4218 83.9207 30.378 84.5517 29.2487C85.1828 28.1191 85.6363 26.8595 85.8994 25.5047C86.5524 22.1468 86.0219 19.4581 84.323 17.5135C82.6407 15.5877 79.9971 14.6112 76.4655 14.6112ZM68.4453 30.4295H71.8396C74.0895 30.4295 75.7653 30.0057 76.8665 29.158C77.9679 28.3102 78.7105 26.8951 79.0965 24.9122C79.4659 23.0084 79.2977 21.6649 78.5919 20.8823C77.8853 20.0996 76.4724 19.7082 74.3524 19.7082H70.5289L68.4453 30.4295ZM76.4655 15.6657C79.6937 15.6657 82.0487 16.5129 83.5289 18.2074C85.0092 19.9019 85.4547 22.2671 84.8642 25.3036C84.6211 26.5545 84.21 27.6982 83.6312 28.7343C83.0518 29.7711 82.2951 30.7191 81.3601 31.5788C80.2458 32.6216 79.0079 33.3647 77.6458 33.8072C76.2836 34.251 74.5487 34.4719 72.4396 34.4719H67.6597L66.3362 41.2826H60.7559L65.7348 15.6657H76.4655" fill="white"/>
<defs>
<radialGradient id="paint0_radial_15_217" cx="0" cy="0" r="1" gradientUnits="userSpaceOnUse" gradientTransform="translate(31.0583 10.393) scale(63.8107)">
<stop stop-color="#AEB2D5"/>
<stop offset="0.3" stop-color="#AEB2D5"/>
<stop offset="0.75" stop-color="#484C89"/>
<stop offset="1" stop-color="#484C89"/>
</radialGradient>
</defs>
</svg>
